<mxfile host="app.diagrams.net" agent="Mozilla/5.0 (Windows NT 10.0; Win64; x64) AppleWebKit/537.36 (KHTML, like Gecko) Chrome/127.0.0.0 Safari/537.36" version="24.7.7">
  <diagram id="C5RBs43oDa-KdzZeNtuy" name="Page-1">
    <mxGraphModel dx="4732" dy="3054" grid="1" gridSize="10" guides="1" tooltips="1" connect="1" arrows="1" fold="1" page="1" pageScale="1" pageWidth="827" pageHeight="1169" math="0" shadow="0">
      <root>
        <mxCell id="WIyWlLk6GJQsqaUBKTNV-0" />
        <mxCell id="WIyWlLk6GJQsqaUBKTNV-1" parent="WIyWlLk6GJQsqaUBKTNV-0" />
        <mxCell id="qYLYCxETFnoU9vuf-ubb-127" style="edgeStyle=orthogonalEdgeStyle;rounded=0;orthogonalLoop=1;jettySize=auto;html=1;" edge="1" parent="WIyWlLk6GJQsqaUBKTNV-1" source="qYLYCxETFnoU9vuf-ubb-1">
          <mxGeometry relative="1" as="geometry">
            <mxPoint x="180" y="280.9999999999998" as="targetPoint" />
          </mxGeometry>
        </mxCell>
        <mxCell id="qYLYCxETFnoU9vuf-ubb-131" value="IP" style="edgeLabel;html=1;align=center;verticalAlign=middle;resizable=0;points=[];" vertex="1" connectable="0" parent="qYLYCxETFnoU9vuf-ubb-127">
          <mxGeometry x="-0.1443" y="1" relative="1" as="geometry">
            <mxPoint as="offset" />
          </mxGeometry>
        </mxCell>
        <mxCell id="qYLYCxETFnoU9vuf-ubb-1" value="" style="shape=mxgraph.cisco.people.androgenous_person;html=1;pointerEvents=1;dashed=0;fillColor=#036897;strokeColor=#ffffff;strokeWidth=2;verticalLabelPosition=bottom;verticalAlign=top;align=center;outlineConnect=0;" vertex="1" parent="WIyWlLk6GJQsqaUBKTNV-1">
          <mxGeometry x="40" y="240" width="69" height="82" as="geometry" />
        </mxCell>
        <mxCell id="qYLYCxETFnoU9vuf-ubb-53" style="edgeStyle=orthogonalEdgeStyle;rounded=0;orthogonalLoop=1;jettySize=auto;html=1;" edge="1" parent="WIyWlLk6GJQsqaUBKTNV-1" source="qYLYCxETFnoU9vuf-ubb-7">
          <mxGeometry relative="1" as="geometry">
            <mxPoint x="400" y="70" as="targetPoint" />
          </mxGeometry>
        </mxCell>
        <mxCell id="qYLYCxETFnoU9vuf-ubb-56" value="&lt;b&gt;HTTP : // 192 . 168 . 0 . 1 : 5000&lt;/b&gt;" style="edgeLabel;html=1;align=center;verticalAlign=middle;resizable=0;points=[];" vertex="1" connectable="0" parent="qYLYCxETFnoU9vuf-ubb-53">
          <mxGeometry x="0.1046" relative="1" as="geometry">
            <mxPoint as="offset" />
          </mxGeometry>
        </mxCell>
        <mxCell id="qYLYCxETFnoU9vuf-ubb-7" value="&amp;nbsp; &amp;nbsp; &amp;nbsp; &amp;nbsp; LOCAL : 5000" style="rounded=1;arcSize=9;align=left;spacingLeft=5;strokeColor=#666666;html=1;strokeWidth=2;fontSize=12;fillColor=#f5f5f5;gradientColor=#b3b3b3;fontStyle=0;fontColor=default;" vertex="1" parent="WIyWlLk6GJQsqaUBKTNV-1">
          <mxGeometry x="330" y="-110" width="140" height="70" as="geometry" />
        </mxCell>
        <mxCell id="qYLYCxETFnoU9vuf-ubb-115" style="edgeStyle=orthogonalEdgeStyle;rounded=0;orthogonalLoop=1;jettySize=auto;html=1;" edge="1" parent="WIyWlLk6GJQsqaUBKTNV-1" target="qYLYCxETFnoU9vuf-ubb-39">
          <mxGeometry relative="1" as="geometry">
            <mxPoint x="340" y="-525" as="sourcePoint" />
          </mxGeometry>
        </mxCell>
        <mxCell id="qYLYCxETFnoU9vuf-ubb-144" style="edgeStyle=orthogonalEdgeStyle;rounded=0;orthogonalLoop=1;jettySize=auto;html=1;" edge="1" parent="WIyWlLk6GJQsqaUBKTNV-1">
          <mxGeometry relative="1" as="geometry">
            <mxPoint x="400" y="-440" as="targetPoint" />
            <mxPoint x="400" y="-490" as="sourcePoint" />
          </mxGeometry>
        </mxCell>
        <mxCell id="qYLYCxETFnoU9vuf-ubb-114" style="edgeStyle=orthogonalEdgeStyle;rounded=0;orthogonalLoop=1;jettySize=auto;html=1;" edge="1" parent="WIyWlLk6GJQsqaUBKTNV-1">
          <mxGeometry relative="1" as="geometry">
            <mxPoint x="350" y="-540.59" as="targetPoint" />
            <mxPoint x="50" y="-540.5311764705881" as="sourcePoint" />
          </mxGeometry>
        </mxCell>
        <mxCell id="qYLYCxETFnoU9vuf-ubb-39" value="" style="image;aspect=fixed;html=1;points=[];align=center;fontSize=12;image=img/lib/azure2/databases/SQL_Server.svg;" vertex="1" parent="WIyWlLk6GJQsqaUBKTNV-1">
          <mxGeometry x="-126" y="-608" width="166" height="166" as="geometry" />
        </mxCell>
        <mxCell id="qYLYCxETFnoU9vuf-ubb-143" style="edgeStyle=orthogonalEdgeStyle;rounded=0;orthogonalLoop=1;jettySize=auto;html=1;" edge="1" parent="WIyWlLk6GJQsqaUBKTNV-1" source="qYLYCxETFnoU9vuf-ubb-44">
          <mxGeometry relative="1" as="geometry">
            <mxPoint x="400" y="-270" as="targetPoint" />
          </mxGeometry>
        </mxCell>
        <mxCell id="qYLYCxETFnoU9vuf-ubb-44" value="CMD" style="swimlane;fontStyle=0;childLayout=stackLayout;horizontal=1;startSize=30;horizontalStack=0;resizeParent=1;resizeParentMax=0;resizeLast=0;collapsible=1;marginBottom=0;whiteSpace=wrap;html=1;" vertex="1" parent="WIyWlLk6GJQsqaUBKTNV-1">
          <mxGeometry x="320" y="-430" width="160" height="90" as="geometry" />
        </mxCell>
        <mxCell id="qYLYCxETFnoU9vuf-ubb-45" value="CD CPP-COMPILER-WEB" style="text;strokeColor=none;fillColor=none;align=left;verticalAlign=middle;spacingLeft=4;spacingRight=4;overflow=hidden;points=[[0,0.5],[1,0.5]];portConstraint=eastwest;rotatable=0;whiteSpace=wrap;html=1;" vertex="1" parent="qYLYCxETFnoU9vuf-ubb-44">
          <mxGeometry y="30" width="160" height="30" as="geometry" />
        </mxCell>
        <mxCell id="qYLYCxETFnoU9vuf-ubb-46" value="PYTHON APP.PY" style="text;strokeColor=none;fillColor=none;align=left;verticalAlign=middle;spacingLeft=4;spacingRight=4;overflow=hidden;points=[[0,0.5],[1,0.5]];portConstraint=eastwest;rotatable=0;whiteSpace=wrap;html=1;" vertex="1" parent="qYLYCxETFnoU9vuf-ubb-44">
          <mxGeometry y="60" width="160" height="30" as="geometry" />
        </mxCell>
        <mxCell id="qYLYCxETFnoU9vuf-ubb-149" style="edgeStyle=orthogonalEdgeStyle;rounded=0;orthogonalLoop=1;jettySize=auto;html=1;" edge="1" parent="WIyWlLk6GJQsqaUBKTNV-1" source="qYLYCxETFnoU9vuf-ubb-51">
          <mxGeometry relative="1" as="geometry">
            <mxPoint x="850" y="144" as="targetPoint" />
          </mxGeometry>
        </mxCell>
        <mxCell id="qYLYCxETFnoU9vuf-ubb-51" value="" style="shape=image;html=1;verticalAlign=top;verticalLabelPosition=bottom;labelBackgroundColor=#ffffff;imageAspect=0;aspect=fixed;image=https://cdn0.iconfinder.com/data/icons/social-network-9/50/20-128.png" vertex="1" parent="WIyWlLk6GJQsqaUBKTNV-1">
          <mxGeometry x="336" y="80" width="128" height="128" as="geometry" />
        </mxCell>
        <mxCell id="qYLYCxETFnoU9vuf-ubb-57" value="NAME AND PASSWOLD" style="shape=table;childLayout=tableLayout;startSize=40;collapsible=0;recursiveResize=0;expand=0;fontSize=16;" vertex="1" parent="WIyWlLk6GJQsqaUBKTNV-1">
          <mxGeometry x="-720" y="-640" width="390" height="200" as="geometry" />
        </mxCell>
        <mxCell id="qYLYCxETFnoU9vuf-ubb-58" value="" style="shape=tableRow;horizontal=0;swimlaneHead=0;swimlaneBody=0;top=0;left=0;strokeColor=inherit;bottom=0;right=0;dropTarget=0;fontStyle=0;fillColor=none;points=[[0,0.5],[1,0.5]];portConstraint=eastwest;startSize=0;collapsible=0;recursiveResize=0;expand=0;fontSize=16;" vertex="1" parent="qYLYCxETFnoU9vuf-ubb-57">
          <mxGeometry y="40" width="390" height="80" as="geometry" />
        </mxCell>
        <mxCell id="qYLYCxETFnoU9vuf-ubb-59" value="ID" style="swimlane;swimlaneHead=0;swimlaneBody=0;fontStyle=0;strokeColor=inherit;connectable=0;fillColor=none;startSize=40;collapsible=0;recursiveResize=0;expand=0;fontSize=16;" vertex="1" parent="qYLYCxETFnoU9vuf-ubb-58">
          <mxGeometry width="130" height="80" as="geometry">
            <mxRectangle width="130" height="80" as="alternateBounds" />
          </mxGeometry>
        </mxCell>
        <mxCell id="qYLYCxETFnoU9vuf-ubb-60" value="NAME" style="swimlane;swimlaneHead=0;swimlaneBody=0;fontStyle=0;strokeColor=inherit;connectable=0;fillColor=none;startSize=40;collapsible=0;recursiveResize=0;expand=0;fontSize=16;" vertex="1" parent="qYLYCxETFnoU9vuf-ubb-58">
          <mxGeometry x="130" width="130" height="80" as="geometry">
            <mxRectangle width="130" height="80" as="alternateBounds" />
          </mxGeometry>
        </mxCell>
        <mxCell id="qYLYCxETFnoU9vuf-ubb-61" value="PASSWWORD" style="swimlane;swimlaneHead=0;swimlaneBody=0;fontStyle=0;strokeColor=inherit;connectable=0;fillColor=none;startSize=40;collapsible=0;recursiveResize=0;expand=0;fontSize=16;" vertex="1" parent="qYLYCxETFnoU9vuf-ubb-58">
          <mxGeometry x="260" width="130" height="80" as="geometry">
            <mxRectangle width="130" height="80" as="alternateBounds" />
          </mxGeometry>
        </mxCell>
        <mxCell id="qYLYCxETFnoU9vuf-ubb-62" value="" style="shape=tableRow;horizontal=0;swimlaneHead=0;swimlaneBody=0;top=0;left=0;strokeColor=inherit;bottom=0;right=0;dropTarget=0;fontStyle=0;fillColor=none;points=[[0,0.5],[1,0.5]];portConstraint=eastwest;startSize=0;collapsible=0;recursiveResize=0;expand=0;fontSize=16;" vertex="1" parent="qYLYCxETFnoU9vuf-ubb-57">
          <mxGeometry y="120" width="390" height="40" as="geometry" />
        </mxCell>
        <mxCell id="qYLYCxETFnoU9vuf-ubb-63" value="" style="swimlane;swimlaneHead=0;swimlaneBody=0;fontStyle=0;connectable=0;strokeColor=inherit;fillColor=none;startSize=0;collapsible=0;recursiveResize=0;expand=0;fontSize=16;" vertex="1" parent="qYLYCxETFnoU9vuf-ubb-62">
          <mxGeometry width="130" height="40" as="geometry">
            <mxRectangle width="130" height="40" as="alternateBounds" />
          </mxGeometry>
        </mxCell>
        <mxCell id="qYLYCxETFnoU9vuf-ubb-64" value="" style="swimlane;swimlaneHead=0;swimlaneBody=0;fontStyle=0;connectable=0;strokeColor=inherit;fillColor=none;startSize=0;collapsible=0;recursiveResize=0;expand=0;fontSize=16;" vertex="1" parent="qYLYCxETFnoU9vuf-ubb-62">
          <mxGeometry x="130" width="130" height="40" as="geometry">
            <mxRectangle width="130" height="40" as="alternateBounds" />
          </mxGeometry>
        </mxCell>
        <mxCell id="qYLYCxETFnoU9vuf-ubb-65" value="" style="swimlane;swimlaneHead=0;swimlaneBody=0;fontStyle=0;connectable=0;strokeColor=inherit;fillColor=none;startSize=0;collapsible=0;recursiveResize=0;expand=0;fontSize=16;" vertex="1" parent="qYLYCxETFnoU9vuf-ubb-62">
          <mxGeometry x="260" width="130" height="40" as="geometry">
            <mxRectangle width="130" height="40" as="alternateBounds" />
          </mxGeometry>
        </mxCell>
        <mxCell id="qYLYCxETFnoU9vuf-ubb-66" value="" style="shape=tableRow;horizontal=0;swimlaneHead=0;swimlaneBody=0;top=0;left=0;strokeColor=inherit;bottom=0;right=0;dropTarget=0;fontStyle=0;fillColor=none;points=[[0,0.5],[1,0.5]];portConstraint=eastwest;startSize=0;collapsible=0;recursiveResize=0;expand=0;fontSize=16;" vertex="1" parent="qYLYCxETFnoU9vuf-ubb-57">
          <mxGeometry y="160" width="390" height="40" as="geometry" />
        </mxCell>
        <mxCell id="qYLYCxETFnoU9vuf-ubb-67" value="" style="swimlane;swimlaneHead=0;swimlaneBody=0;fontStyle=0;connectable=0;strokeColor=inherit;fillColor=none;startSize=0;collapsible=0;recursiveResize=0;expand=0;fontSize=16;" vertex="1" parent="qYLYCxETFnoU9vuf-ubb-66">
          <mxGeometry width="130" height="40" as="geometry">
            <mxRectangle width="130" height="40" as="alternateBounds" />
          </mxGeometry>
        </mxCell>
        <mxCell id="qYLYCxETFnoU9vuf-ubb-68" value="" style="swimlane;swimlaneHead=0;swimlaneBody=0;fontStyle=0;connectable=0;strokeColor=inherit;fillColor=none;startSize=0;collapsible=0;recursiveResize=0;expand=0;fontSize=16;" vertex="1" parent="qYLYCxETFnoU9vuf-ubb-66">
          <mxGeometry x="130" width="130" height="40" as="geometry">
            <mxRectangle width="130" height="40" as="alternateBounds" />
          </mxGeometry>
        </mxCell>
        <mxCell id="qYLYCxETFnoU9vuf-ubb-69" value="" style="swimlane;swimlaneHead=0;swimlaneBody=0;fontStyle=0;connectable=0;strokeColor=inherit;fillColor=none;startSize=0;collapsible=0;recursiveResize=0;expand=0;fontSize=16;" vertex="1" parent="qYLYCxETFnoU9vuf-ubb-66">
          <mxGeometry x="260" width="130" height="40" as="geometry">
            <mxRectangle width="130" height="40" as="alternateBounds" />
          </mxGeometry>
        </mxCell>
        <mxCell id="qYLYCxETFnoU9vuf-ubb-74" value="COMMENT" style="shape=table;childLayout=tableLayout;startSize=40;collapsible=0;recursiveResize=0;expand=0;fontSize=16;" vertex="1" parent="WIyWlLk6GJQsqaUBKTNV-1">
          <mxGeometry x="-720" y="-360" width="390" height="200" as="geometry" />
        </mxCell>
        <mxCell id="qYLYCxETFnoU9vuf-ubb-75" value="" style="shape=tableRow;horizontal=0;swimlaneHead=0;swimlaneBody=0;top=0;left=0;strokeColor=inherit;bottom=0;right=0;dropTarget=0;fontStyle=0;fillColor=none;points=[[0,0.5],[1,0.5]];portConstraint=eastwest;startSize=0;collapsible=0;recursiveResize=0;expand=0;fontSize=16;" vertex="1" parent="qYLYCxETFnoU9vuf-ubb-74">
          <mxGeometry y="40" width="390" height="80" as="geometry" />
        </mxCell>
        <mxCell id="qYLYCxETFnoU9vuf-ubb-76" value="ID" style="swimlane;swimlaneHead=0;swimlaneBody=0;fontStyle=0;strokeColor=inherit;connectable=0;fillColor=none;startSize=40;collapsible=0;recursiveResize=0;expand=0;fontSize=16;" vertex="1" parent="qYLYCxETFnoU9vuf-ubb-75">
          <mxGeometry width="130" height="80" as="geometry">
            <mxRectangle width="130" height="80" as="alternateBounds" />
          </mxGeometry>
        </mxCell>
        <mxCell id="qYLYCxETFnoU9vuf-ubb-77" value="CONTENT" style="swimlane;swimlaneHead=0;swimlaneBody=0;fontStyle=0;strokeColor=inherit;connectable=0;fillColor=none;startSize=40;collapsible=0;recursiveResize=0;expand=0;fontSize=16;" vertex="1" parent="qYLYCxETFnoU9vuf-ubb-75">
          <mxGeometry x="130" width="130" height="80" as="geometry">
            <mxRectangle width="130" height="80" as="alternateBounds" />
          </mxGeometry>
        </mxCell>
        <mxCell id="qYLYCxETFnoU9vuf-ubb-78" value="POST ID" style="swimlane;swimlaneHead=0;swimlaneBody=0;fontStyle=0;strokeColor=inherit;connectable=0;fillColor=none;startSize=40;collapsible=0;recursiveResize=0;expand=0;fontSize=16;" vertex="1" parent="qYLYCxETFnoU9vuf-ubb-75">
          <mxGeometry x="260" width="130" height="80" as="geometry">
            <mxRectangle width="130" height="80" as="alternateBounds" />
          </mxGeometry>
        </mxCell>
        <mxCell id="qYLYCxETFnoU9vuf-ubb-79" value="" style="shape=tableRow;horizontal=0;swimlaneHead=0;swimlaneBody=0;top=0;left=0;strokeColor=inherit;bottom=0;right=0;dropTarget=0;fontStyle=0;fillColor=none;points=[[0,0.5],[1,0.5]];portConstraint=eastwest;startSize=0;collapsible=0;recursiveResize=0;expand=0;fontSize=16;" vertex="1" parent="qYLYCxETFnoU9vuf-ubb-74">
          <mxGeometry y="120" width="390" height="40" as="geometry" />
        </mxCell>
        <mxCell id="qYLYCxETFnoU9vuf-ubb-80" value="" style="swimlane;swimlaneHead=0;swimlaneBody=0;fontStyle=0;connectable=0;strokeColor=inherit;fillColor=none;startSize=0;collapsible=0;recursiveResize=0;expand=0;fontSize=16;" vertex="1" parent="qYLYCxETFnoU9vuf-ubb-79">
          <mxGeometry width="130" height="40" as="geometry">
            <mxRectangle width="130" height="40" as="alternateBounds" />
          </mxGeometry>
        </mxCell>
        <mxCell id="qYLYCxETFnoU9vuf-ubb-81" value="" style="swimlane;swimlaneHead=0;swimlaneBody=0;fontStyle=0;connectable=0;strokeColor=inherit;fillColor=none;startSize=0;collapsible=0;recursiveResize=0;expand=0;fontSize=16;" vertex="1" parent="qYLYCxETFnoU9vuf-ubb-79">
          <mxGeometry x="130" width="130" height="40" as="geometry">
            <mxRectangle width="130" height="40" as="alternateBounds" />
          </mxGeometry>
        </mxCell>
        <mxCell id="qYLYCxETFnoU9vuf-ubb-82" value="" style="swimlane;swimlaneHead=0;swimlaneBody=0;fontStyle=0;connectable=0;strokeColor=inherit;fillColor=none;startSize=0;collapsible=0;recursiveResize=0;expand=0;fontSize=16;" vertex="1" parent="qYLYCxETFnoU9vuf-ubb-79">
          <mxGeometry x="260" width="130" height="40" as="geometry">
            <mxRectangle width="130" height="40" as="alternateBounds" />
          </mxGeometry>
        </mxCell>
        <mxCell id="qYLYCxETFnoU9vuf-ubb-83" value="" style="shape=tableRow;horizontal=0;swimlaneHead=0;swimlaneBody=0;top=0;left=0;strokeColor=inherit;bottom=0;right=0;dropTarget=0;fontStyle=0;fillColor=none;points=[[0,0.5],[1,0.5]];portConstraint=eastwest;startSize=0;collapsible=0;recursiveResize=0;expand=0;fontSize=16;" vertex="1" parent="qYLYCxETFnoU9vuf-ubb-74">
          <mxGeometry y="160" width="390" height="40" as="geometry" />
        </mxCell>
        <mxCell id="qYLYCxETFnoU9vuf-ubb-84" value="" style="swimlane;swimlaneHead=0;swimlaneBody=0;fontStyle=0;connectable=0;strokeColor=inherit;fillColor=none;startSize=0;collapsible=0;recursiveResize=0;expand=0;fontSize=16;" vertex="1" parent="qYLYCxETFnoU9vuf-ubb-83">
          <mxGeometry width="130" height="40" as="geometry">
            <mxRectangle width="130" height="40" as="alternateBounds" />
          </mxGeometry>
        </mxCell>
        <mxCell id="qYLYCxETFnoU9vuf-ubb-85" value="" style="swimlane;swimlaneHead=0;swimlaneBody=0;fontStyle=0;connectable=0;strokeColor=inherit;fillColor=none;startSize=0;collapsible=0;recursiveResize=0;expand=0;fontSize=16;" vertex="1" parent="qYLYCxETFnoU9vuf-ubb-83">
          <mxGeometry x="130" width="130" height="40" as="geometry">
            <mxRectangle width="130" height="40" as="alternateBounds" />
          </mxGeometry>
        </mxCell>
        <mxCell id="qYLYCxETFnoU9vuf-ubb-86" value="" style="swimlane;swimlaneHead=0;swimlaneBody=0;fontStyle=0;connectable=0;strokeColor=inherit;fillColor=none;startSize=0;collapsible=0;recursiveResize=0;expand=0;fontSize=16;" vertex="1" parent="qYLYCxETFnoU9vuf-ubb-83">
          <mxGeometry x="260" width="130" height="40" as="geometry">
            <mxRectangle width="130" height="40" as="alternateBounds" />
          </mxGeometry>
        </mxCell>
        <mxCell id="qYLYCxETFnoU9vuf-ubb-87" value="COMMENT" style="shape=table;childLayout=tableLayout;startSize=40;collapsible=0;recursiveResize=0;expand=0;fontSize=16;" vertex="1" parent="WIyWlLk6GJQsqaUBKTNV-1">
          <mxGeometry x="-720" y="-910" width="390" height="200" as="geometry" />
        </mxCell>
        <mxCell id="qYLYCxETFnoU9vuf-ubb-88" value="" style="shape=tableRow;horizontal=0;swimlaneHead=0;swimlaneBody=0;top=0;left=0;strokeColor=inherit;bottom=0;right=0;dropTarget=0;fontStyle=0;fillColor=none;points=[[0,0.5],[1,0.5]];portConstraint=eastwest;startSize=0;collapsible=0;recursiveResize=0;expand=0;fontSize=16;" vertex="1" parent="qYLYCxETFnoU9vuf-ubb-87">
          <mxGeometry y="40" width="390" height="80" as="geometry" />
        </mxCell>
        <mxCell id="qYLYCxETFnoU9vuf-ubb-89" value="TITLE" style="swimlane;swimlaneHead=0;swimlaneBody=0;fontStyle=0;strokeColor=inherit;connectable=0;fillColor=none;startSize=40;collapsible=0;recursiveResize=0;expand=0;fontSize=16;" vertex="1" parent="qYLYCxETFnoU9vuf-ubb-88">
          <mxGeometry width="130" height="80" as="geometry">
            <mxRectangle width="130" height="80" as="alternateBounds" />
          </mxGeometry>
        </mxCell>
        <mxCell id="qYLYCxETFnoU9vuf-ubb-90" value="CONTENT" style="swimlane;swimlaneHead=0;swimlaneBody=0;fontStyle=0;strokeColor=inherit;connectable=0;fillColor=none;startSize=40;collapsible=0;recursiveResize=0;expand=0;fontSize=16;" vertex="1" parent="qYLYCxETFnoU9vuf-ubb-88">
          <mxGeometry x="130" width="130" height="80" as="geometry">
            <mxRectangle width="130" height="80" as="alternateBounds" />
          </mxGeometry>
        </mxCell>
        <mxCell id="qYLYCxETFnoU9vuf-ubb-91" value="IMAGE" style="swimlane;swimlaneHead=0;swimlaneBody=0;fontStyle=0;strokeColor=inherit;connectable=0;fillColor=none;startSize=40;collapsible=0;recursiveResize=0;expand=0;fontSize=16;" vertex="1" parent="qYLYCxETFnoU9vuf-ubb-88">
          <mxGeometry x="260" width="130" height="80" as="geometry">
            <mxRectangle width="130" height="80" as="alternateBounds" />
          </mxGeometry>
        </mxCell>
        <mxCell id="qYLYCxETFnoU9vuf-ubb-92" value="" style="shape=tableRow;horizontal=0;swimlaneHead=0;swimlaneBody=0;top=0;left=0;strokeColor=inherit;bottom=0;right=0;dropTarget=0;fontStyle=0;fillColor=none;points=[[0,0.5],[1,0.5]];portConstraint=eastwest;startSize=0;collapsible=0;recursiveResize=0;expand=0;fontSize=16;" vertex="1" parent="qYLYCxETFnoU9vuf-ubb-87">
          <mxGeometry y="120" width="390" height="40" as="geometry" />
        </mxCell>
        <mxCell id="qYLYCxETFnoU9vuf-ubb-93" value="" style="swimlane;swimlaneHead=0;swimlaneBody=0;fontStyle=0;connectable=0;strokeColor=inherit;fillColor=none;startSize=0;collapsible=0;recursiveResize=0;expand=0;fontSize=16;" vertex="1" parent="qYLYCxETFnoU9vuf-ubb-92">
          <mxGeometry width="130" height="40" as="geometry">
            <mxRectangle width="130" height="40" as="alternateBounds" />
          </mxGeometry>
        </mxCell>
        <mxCell id="qYLYCxETFnoU9vuf-ubb-94" value="" style="swimlane;swimlaneHead=0;swimlaneBody=0;fontStyle=0;connectable=0;strokeColor=inherit;fillColor=none;startSize=0;collapsible=0;recursiveResize=0;expand=0;fontSize=16;" vertex="1" parent="qYLYCxETFnoU9vuf-ubb-92">
          <mxGeometry x="130" width="130" height="40" as="geometry">
            <mxRectangle width="130" height="40" as="alternateBounds" />
          </mxGeometry>
        </mxCell>
        <mxCell id="qYLYCxETFnoU9vuf-ubb-95" value="" style="swimlane;swimlaneHead=0;swimlaneBody=0;fontStyle=0;connectable=0;strokeColor=inherit;fillColor=none;startSize=0;collapsible=0;recursiveResize=0;expand=0;fontSize=16;" vertex="1" parent="qYLYCxETFnoU9vuf-ubb-92">
          <mxGeometry x="260" width="130" height="40" as="geometry">
            <mxRectangle width="130" height="40" as="alternateBounds" />
          </mxGeometry>
        </mxCell>
        <mxCell id="qYLYCxETFnoU9vuf-ubb-96" value="" style="shape=tableRow;horizontal=0;swimlaneHead=0;swimlaneBody=0;top=0;left=0;strokeColor=inherit;bottom=0;right=0;dropTarget=0;fontStyle=0;fillColor=none;points=[[0,0.5],[1,0.5]];portConstraint=eastwest;startSize=0;collapsible=0;recursiveResize=0;expand=0;fontSize=16;" vertex="1" parent="qYLYCxETFnoU9vuf-ubb-87">
          <mxGeometry y="160" width="390" height="40" as="geometry" />
        </mxCell>
        <mxCell id="qYLYCxETFnoU9vuf-ubb-97" value="" style="swimlane;swimlaneHead=0;swimlaneBody=0;fontStyle=0;connectable=0;strokeColor=inherit;fillColor=none;startSize=0;collapsible=0;recursiveResize=0;expand=0;fontSize=16;" vertex="1" parent="qYLYCxETFnoU9vuf-ubb-96">
          <mxGeometry width="130" height="40" as="geometry">
            <mxRectangle width="130" height="40" as="alternateBounds" />
          </mxGeometry>
        </mxCell>
        <mxCell id="qYLYCxETFnoU9vuf-ubb-98" value="" style="swimlane;swimlaneHead=0;swimlaneBody=0;fontStyle=0;connectable=0;strokeColor=inherit;fillColor=none;startSize=0;collapsible=0;recursiveResize=0;expand=0;fontSize=16;" vertex="1" parent="qYLYCxETFnoU9vuf-ubb-96">
          <mxGeometry x="130" width="130" height="40" as="geometry">
            <mxRectangle width="130" height="40" as="alternateBounds" />
          </mxGeometry>
        </mxCell>
        <mxCell id="qYLYCxETFnoU9vuf-ubb-99" value="" style="swimlane;swimlaneHead=0;swimlaneBody=0;fontStyle=0;connectable=0;strokeColor=inherit;fillColor=none;startSize=0;collapsible=0;recursiveResize=0;expand=0;fontSize=16;" vertex="1" parent="qYLYCxETFnoU9vuf-ubb-96">
          <mxGeometry x="260" width="130" height="40" as="geometry">
            <mxRectangle width="130" height="40" as="alternateBounds" />
          </mxGeometry>
        </mxCell>
        <mxCell id="qYLYCxETFnoU9vuf-ubb-110" value="" style="edgeStyle=elbowEdgeStyle;elbow=horizontal;endArrow=classic;html=1;curved=0;rounded=0;endSize=8;startSize=8;" edge="1" parent="WIyWlLk6GJQsqaUBKTNV-1">
          <mxGeometry width="50" height="50" relative="1" as="geometry">
            <mxPoint x="-330" y="-240" as="sourcePoint" />
            <mxPoint x="-140" y="-480" as="targetPoint" />
          </mxGeometry>
        </mxCell>
        <mxCell id="qYLYCxETFnoU9vuf-ubb-111" value="" style="edgeStyle=elbowEdgeStyle;elbow=horizontal;endArrow=classic;html=1;curved=0;rounded=0;endSize=8;startSize=8;" edge="1" parent="WIyWlLk6GJQsqaUBKTNV-1">
          <mxGeometry width="50" height="50" relative="1" as="geometry">
            <mxPoint x="-330" y="-790" as="sourcePoint" />
            <mxPoint x="-140" y="-560" as="targetPoint" />
          </mxGeometry>
        </mxCell>
        <mxCell id="qYLYCxETFnoU9vuf-ubb-113" value="" style="endArrow=classic;html=1;rounded=0;" edge="1" parent="WIyWlLk6GJQsqaUBKTNV-1">
          <mxGeometry width="50" height="50" relative="1" as="geometry">
            <mxPoint x="-330" y="-520" as="sourcePoint" />
            <mxPoint x="-140" y="-520" as="targetPoint" />
          </mxGeometry>
        </mxCell>
        <mxCell id="qYLYCxETFnoU9vuf-ubb-126" style="edgeStyle=orthogonalEdgeStyle;rounded=0;orthogonalLoop=1;jettySize=auto;html=1;" edge="1" parent="WIyWlLk6GJQsqaUBKTNV-1" source="qYLYCxETFnoU9vuf-ubb-116">
          <mxGeometry relative="1" as="geometry">
            <mxPoint x="180" y="400" as="targetPoint" />
          </mxGeometry>
        </mxCell>
        <mxCell id="qYLYCxETFnoU9vuf-ubb-132" value="IP" style="edgeLabel;html=1;align=center;verticalAlign=middle;resizable=0;points=[];" vertex="1" connectable="0" parent="qYLYCxETFnoU9vuf-ubb-126">
          <mxGeometry x="-0.2215" y="1" relative="1" as="geometry">
            <mxPoint as="offset" />
          </mxGeometry>
        </mxCell>
        <mxCell id="qYLYCxETFnoU9vuf-ubb-116" value="" style="shape=mxgraph.cisco.people.androgenous_person;html=1;pointerEvents=1;dashed=0;fillColor=#036897;strokeColor=#ffffff;strokeWidth=2;verticalLabelPosition=bottom;verticalAlign=top;align=center;outlineConnect=0;" vertex="1" parent="WIyWlLk6GJQsqaUBKTNV-1">
          <mxGeometry x="40" y="360" width="69" height="82" as="geometry" />
        </mxCell>
        <mxCell id="qYLYCxETFnoU9vuf-ubb-128" style="edgeStyle=orthogonalEdgeStyle;rounded=0;orthogonalLoop=1;jettySize=auto;html=1;" edge="1" parent="WIyWlLk6GJQsqaUBKTNV-1" source="qYLYCxETFnoU9vuf-ubb-117">
          <mxGeometry relative="1" as="geometry">
            <mxPoint x="180" y="520.9999999999995" as="targetPoint" />
          </mxGeometry>
        </mxCell>
        <mxCell id="qYLYCxETFnoU9vuf-ubb-133" value="IP" style="edgeLabel;html=1;align=center;verticalAlign=middle;resizable=0;points=[];" vertex="1" connectable="0" parent="qYLYCxETFnoU9vuf-ubb-128">
          <mxGeometry x="0.0238" relative="1" as="geometry">
            <mxPoint as="offset" />
          </mxGeometry>
        </mxCell>
        <mxCell id="qYLYCxETFnoU9vuf-ubb-117" value="" style="shape=mxgraph.cisco.people.androgenous_person;html=1;pointerEvents=1;dashed=0;fillColor=#036897;strokeColor=#ffffff;strokeWidth=2;verticalLabelPosition=bottom;verticalAlign=top;align=center;outlineConnect=0;" vertex="1" parent="WIyWlLk6GJQsqaUBKTNV-1">
          <mxGeometry x="40" y="480" width="69" height="82" as="geometry" />
        </mxCell>
        <mxCell id="qYLYCxETFnoU9vuf-ubb-129" style="edgeStyle=orthogonalEdgeStyle;rounded=0;orthogonalLoop=1;jettySize=auto;html=1;" edge="1" parent="WIyWlLk6GJQsqaUBKTNV-1" source="qYLYCxETFnoU9vuf-ubb-118">
          <mxGeometry relative="1" as="geometry">
            <mxPoint x="180" y="640.9999999999995" as="targetPoint" />
          </mxGeometry>
        </mxCell>
        <mxCell id="qYLYCxETFnoU9vuf-ubb-134" value="IP" style="edgeLabel;html=1;align=center;verticalAlign=middle;resizable=0;points=[];" vertex="1" connectable="0" parent="qYLYCxETFnoU9vuf-ubb-129">
          <mxGeometry x="-0.2793" y="1" relative="1" as="geometry">
            <mxPoint as="offset" />
          </mxGeometry>
        </mxCell>
        <mxCell id="qYLYCxETFnoU9vuf-ubb-118" value="" style="shape=mxgraph.cisco.people.androgenous_person;html=1;pointerEvents=1;dashed=0;fillColor=#036897;strokeColor=#ffffff;strokeWidth=2;verticalLabelPosition=bottom;verticalAlign=top;align=center;outlineConnect=0;" vertex="1" parent="WIyWlLk6GJQsqaUBKTNV-1">
          <mxGeometry x="40" y="600" width="69" height="82" as="geometry" />
        </mxCell>
        <mxCell id="qYLYCxETFnoU9vuf-ubb-130" style="edgeStyle=orthogonalEdgeStyle;rounded=0;orthogonalLoop=1;jettySize=auto;html=1;" edge="1" parent="WIyWlLk6GJQsqaUBKTNV-1" source="qYLYCxETFnoU9vuf-ubb-119">
          <mxGeometry relative="1" as="geometry">
            <mxPoint x="180" y="760.9999999999995" as="targetPoint" />
          </mxGeometry>
        </mxCell>
        <mxCell id="qYLYCxETFnoU9vuf-ubb-135" value="IP" style="edgeLabel;html=1;align=center;verticalAlign=middle;resizable=0;points=[];" vertex="1" connectable="0" parent="qYLYCxETFnoU9vuf-ubb-130">
          <mxGeometry x="-0.0478" y="3" relative="1" as="geometry">
            <mxPoint as="offset" />
          </mxGeometry>
        </mxCell>
        <mxCell id="qYLYCxETFnoU9vuf-ubb-119" value="" style="shape=mxgraph.cisco.people.androgenous_person;html=1;pointerEvents=1;dashed=0;fillColor=#036897;strokeColor=#ffffff;strokeWidth=2;verticalLabelPosition=bottom;verticalAlign=top;align=center;outlineConnect=0;" vertex="1" parent="WIyWlLk6GJQsqaUBKTNV-1">
          <mxGeometry x="40" y="720" width="69" height="82" as="geometry" />
        </mxCell>
        <mxCell id="qYLYCxETFnoU9vuf-ubb-121" value="" style="edgeStyle=segmentEdgeStyle;endArrow=classic;html=1;curved=0;rounded=0;endSize=8;startSize=8;" edge="1" parent="WIyWlLk6GJQsqaUBKTNV-1">
          <mxGeometry width="50" height="50" relative="1" as="geometry">
            <mxPoint x="200" y="280" as="sourcePoint" />
            <mxPoint x="400" y="220" as="targetPoint" />
          </mxGeometry>
        </mxCell>
        <mxCell id="qYLYCxETFnoU9vuf-ubb-175" style="edgeStyle=orthogonalEdgeStyle;rounded=0;orthogonalLoop=1;jettySize=auto;html=1;exitX=0.5;exitY=0.523;exitDx=0;exitDy=0;exitPerimeter=0;" edge="1" parent="WIyWlLk6GJQsqaUBKTNV-1" source="qYLYCxETFnoU9vuf-ubb-123">
          <mxGeometry relative="1" as="geometry">
            <mxPoint x="370" y="540" as="targetPoint" />
          </mxGeometry>
        </mxCell>
        <mxCell id="qYLYCxETFnoU9vuf-ubb-123" value="" style="line;strokeWidth=2;direction=south;html=1;" vertex="1" parent="WIyWlLk6GJQsqaUBKTNV-1">
          <mxGeometry x="190" y="280" width="20" height="520" as="geometry" />
        </mxCell>
        <mxCell id="qYLYCxETFnoU9vuf-ubb-145" style="edgeStyle=orthogonalEdgeStyle;rounded=0;orthogonalLoop=1;jettySize=auto;html=1;" edge="1" parent="WIyWlLk6GJQsqaUBKTNV-1" source="qYLYCxETFnoU9vuf-ubb-136">
          <mxGeometry relative="1" as="geometry">
            <mxPoint x="400" y="-120" as="targetPoint" />
          </mxGeometry>
        </mxCell>
        <mxCell id="qYLYCxETFnoU9vuf-ubb-136" value="" style="image;aspect=fixed;perimeter=ellipsePerimeter;html=1;align=center;shadow=0;dashed=0;spacingTop=3;image=img/lib/active_directory/web_server.svg;" vertex="1" parent="WIyWlLk6GJQsqaUBKTNV-1">
          <mxGeometry x="364" y="-260" width="72" height="90" as="geometry" />
        </mxCell>
        <mxCell id="qYLYCxETFnoU9vuf-ubb-147" value="Home" style="html=1;whiteSpace=wrap;strokeColor=none;fillColor=#0079D6;labelPosition=center;verticalLabelPosition=middle;verticalAlign=top;align=center;fontSize=12;outlineConnect=0;spacingTop=-6;fontColor=#FFFFFF;sketch=0;shape=mxgraph.sitemap.home;" vertex="1" parent="WIyWlLk6GJQsqaUBKTNV-1">
          <mxGeometry x="880" y="50" width="310" height="169" as="geometry" />
        </mxCell>
        <mxCell id="qYLYCxETFnoU9vuf-ubb-171" style="edgeStyle=orthogonalEdgeStyle;rounded=0;orthogonalLoop=1;jettySize=auto;html=1;" edge="1" parent="WIyWlLk6GJQsqaUBKTNV-1" source="qYLYCxETFnoU9vuf-ubb-148">
          <mxGeometry relative="1" as="geometry">
            <mxPoint x="620" y="-535.0000000000002" as="targetPoint" />
          </mxGeometry>
        </mxCell>
        <mxCell id="qYLYCxETFnoU9vuf-ubb-148" value="" style="image;html=1;image=img/lib/clip_art/computers/Laptop_128x128.png" vertex="1" parent="WIyWlLk6GJQsqaUBKTNV-1">
          <mxGeometry x="352" y="-580" width="96" height="90" as="geometry" />
        </mxCell>
        <mxCell id="qYLYCxETFnoU9vuf-ubb-156" value="" style="edgeStyle=orthogonalEdgeStyle;rounded=0;orthogonalLoop=1;jettySize=auto;html=1;" edge="1" parent="WIyWlLk6GJQsqaUBKTNV-1" target="qYLYCxETFnoU9vuf-ubb-155">
          <mxGeometry relative="1" as="geometry">
            <mxPoint x="1000" y="40" as="targetPoint" />
            <mxPoint x="730" y="-530" as="sourcePoint" />
          </mxGeometry>
        </mxCell>
        <mxCell id="qYLYCxETFnoU9vuf-ubb-162" style="edgeStyle=orthogonalEdgeStyle;rounded=0;orthogonalLoop=1;jettySize=auto;html=1;" edge="1" parent="WIyWlLk6GJQsqaUBKTNV-1" source="qYLYCxETFnoU9vuf-ubb-155">
          <mxGeometry relative="1" as="geometry">
            <mxPoint x="1007" y="-290" as="targetPoint" />
          </mxGeometry>
        </mxCell>
        <mxCell id="qYLYCxETFnoU9vuf-ubb-155" value="" style="sketch=0;outlineConnect=0;fontColor=#232F3E;gradientColor=none;fillColor=#232F3D;strokeColor=none;dashed=0;verticalLabelPosition=bottom;verticalAlign=top;align=center;html=1;fontSize=12;fontStyle=0;aspect=fixed;pointerEvents=1;shape=mxgraph.aws4.folders;" vertex="1" parent="WIyWlLk6GJQsqaUBKTNV-1">
          <mxGeometry x="968.05" y="-430" width="76.9" height="70" as="geometry" />
        </mxCell>
        <mxCell id="qYLYCxETFnoU9vuf-ubb-164" style="edgeStyle=orthogonalEdgeStyle;rounded=0;orthogonalLoop=1;jettySize=auto;html=1;" edge="1" parent="WIyWlLk6GJQsqaUBKTNV-1" source="qYLYCxETFnoU9vuf-ubb-159">
          <mxGeometry relative="1" as="geometry">
            <mxPoint x="1003.3800000000001" y="40" as="targetPoint" />
          </mxGeometry>
        </mxCell>
        <mxCell id="qYLYCxETFnoU9vuf-ubb-159" value="" style="sketch=0;outlineConnect=0;fontColor=#232F3E;gradientColor=none;fillColor=#232F3D;strokeColor=none;dashed=0;verticalLabelPosition=bottom;verticalAlign=top;align=center;html=1;fontSize=12;fontStyle=0;aspect=fixed;pointerEvents=1;shape=mxgraph.aws4.multimedia;" vertex="1" parent="WIyWlLk6GJQsqaUBKTNV-1">
          <mxGeometry x="964.38" y="-113" width="78" height="73" as="geometry" />
        </mxCell>
        <mxCell id="qYLYCxETFnoU9vuf-ubb-163" style="edgeStyle=orthogonalEdgeStyle;rounded=0;orthogonalLoop=1;jettySize=auto;html=1;" edge="1" parent="WIyWlLk6GJQsqaUBKTNV-1" source="qYLYCxETFnoU9vuf-ubb-160">
          <mxGeometry relative="1" as="geometry">
            <mxPoint x="1006.5049999999997" y="-130" as="targetPoint" />
          </mxGeometry>
        </mxCell>
        <mxCell id="qYLYCxETFnoU9vuf-ubb-160" value="" style="sketch=0;outlineConnect=0;fontColor=#232F3E;gradientColor=none;fillColor=#232F3D;strokeColor=none;dashed=0;verticalLabelPosition=bottom;verticalAlign=top;align=center;html=1;fontSize=12;fontStyle=0;aspect=fixed;pointerEvents=1;shape=mxgraph.aws4.logs;" vertex="1" parent="WIyWlLk6GJQsqaUBKTNV-1">
          <mxGeometry x="973.62" y="-280" width="65.77" height="90" as="geometry" />
        </mxCell>
        <mxCell id="qYLYCxETFnoU9vuf-ubb-170" value="" style="image;aspect=fixed;perimeter=ellipsePerimeter;html=1;align=center;shadow=0;dashed=0;spacingTop=3;image=img/lib/active_directory/web_server.svg;" vertex="1" parent="WIyWlLk6GJQsqaUBKTNV-1">
          <mxGeometry x="650" y="-570" width="72" height="90" as="geometry" />
        </mxCell>
        <mxCell id="qYLYCxETFnoU9vuf-ubb-172" value="" style="line;strokeWidth=2;direction=south;html=1;" vertex="1" parent="WIyWlLk6GJQsqaUBKTNV-1">
          <mxGeometry x="998.38" y="219" width="10" height="931" as="geometry" />
        </mxCell>
        <mxCell id="qYLYCxETFnoU9vuf-ubb-176" style="edgeStyle=orthogonalEdgeStyle;rounded=0;orthogonalLoop=1;jettySize=auto;html=1;" edge="1" parent="WIyWlLk6GJQsqaUBKTNV-1" source="qYLYCxETFnoU9vuf-ubb-173">
          <mxGeometry relative="1" as="geometry">
            <mxPoint x="990" y="540" as="targetPoint" />
          </mxGeometry>
        </mxCell>
        <mxCell id="qYLYCxETFnoU9vuf-ubb-173" value="&lt;h1&gt;YÊU CẦU NGƯỜI DÙNG&lt;/h1&gt;" style="rounded=0;whiteSpace=wrap;html=1;fillColor=#f5f5f5;gradientColor=#b3b3b3;strokeColor=#666666;" vertex="1" parent="WIyWlLk6GJQsqaUBKTNV-1">
          <mxGeometry x="380" y="480" width="320" height="120" as="geometry" />
        </mxCell>
        <mxCell id="qYLYCxETFnoU9vuf-ubb-206" style="edgeStyle=orthogonalEdgeStyle;rounded=0;orthogonalLoop=1;jettySize=auto;html=1;" edge="1" parent="WIyWlLk6GJQsqaUBKTNV-1" source="qYLYCxETFnoU9vuf-ubb-203" target="qYLYCxETFnoU9vuf-ubb-88">
          <mxGeometry relative="1" as="geometry" />
        </mxCell>
        <mxCell id="qYLYCxETFnoU9vuf-ubb-190" value="LOGIN" style="html=1;whiteSpace=wrap;strokeColor=none;fillColor=#0079D6;labelPosition=center;verticalLabelPosition=middle;verticalAlign=top;align=center;fontSize=12;outlineConnect=0;spacingTop=-6;fontColor=#FFFFFF;sketch=0;shape=mxgraph.sitemap.login;" vertex="1" parent="WIyWlLk6GJQsqaUBKTNV-1">
          <mxGeometry x="1360" y="80" width="200" height="119" as="geometry" />
        </mxCell>
        <mxCell id="qYLYCxETFnoU9vuf-ubb-191" value="REGISTER" style="html=1;whiteSpace=wrap;strokeColor=none;fillColor=#0079D6;labelPosition=center;verticalLabelPosition=middle;verticalAlign=top;align=center;fontSize=12;outlineConnect=0;spacingTop=-6;fontColor=#FFFFFF;sketch=0;shape=mxgraph.sitemap.login;" vertex="1" parent="WIyWlLk6GJQsqaUBKTNV-1">
          <mxGeometry x="1650" y="79" width="200" height="120" as="geometry" />
        </mxCell>
        <mxCell id="qYLYCxETFnoU9vuf-ubb-207" value="" style="edgeStyle=orthogonalEdgeStyle;rounded=0;orthogonalLoop=1;jettySize=auto;html=1;" edge="1" parent="WIyWlLk6GJQsqaUBKTNV-1" source="qYLYCxETFnoU9vuf-ubb-190" target="qYLYCxETFnoU9vuf-ubb-203">
          <mxGeometry relative="1" as="geometry">
            <mxPoint x="1460" y="80" as="sourcePoint" />
            <mxPoint x="-330" y="-830" as="targetPoint" />
          </mxGeometry>
        </mxCell>
        <mxCell id="qYLYCxETFnoU9vuf-ubb-203" value="" style="shape=image;html=1;verticalAlign=top;verticalLabelPosition=bottom;labelBackgroundColor=#ffffff;imageAspect=0;aspect=fixed;image=https://cdn1.iconfinder.com/data/icons/Futurosoft%20Icons%200.5.2/128x128/apps/Login-Manager.png" vertex="1" parent="WIyWlLk6GJQsqaUBKTNV-1">
          <mxGeometry x="1396" y="-649" width="128" height="128" as="geometry" />
        </mxCell>
        <mxCell id="qYLYCxETFnoU9vuf-ubb-208" value="" style="verticalLabelPosition=bottom;aspect=fixed;html=1;verticalAlign=top;fillColor=strokeColor;align=center;outlineConnect=0;shape=mxgraph.fluid_power.x10670;points=[[0.372,0,0],[0.372,1,0],[0.812,0,0]];direction=west;" vertex="1" parent="WIyWlLk6GJQsqaUBKTNV-1">
          <mxGeometry x="1297.8500000000001" y="-240" width="98.15" height="160" as="geometry" />
        </mxCell>
        <mxCell id="qYLYCxETFnoU9vuf-ubb-210" value="" style="edgeStyle=elbowEdgeStyle;elbow=vertical;endArrow=classic;html=1;curved=0;rounded=0;endSize=8;startSize=8;exitX=0.372;exitY=0;exitDx=0;exitDy=0;exitPerimeter=0;" edge="1" parent="WIyWlLk6GJQsqaUBKTNV-1" source="qYLYCxETFnoU9vuf-ubb-208">
          <mxGeometry width="50" height="50" relative="1" as="geometry">
            <mxPoint x="1330" y="-20" as="sourcePoint" />
            <mxPoint x="1360" y="70" as="targetPoint" />
          </mxGeometry>
        </mxCell>
        <mxCell id="qYLYCxETFnoU9vuf-ubb-212" value="" style="edgeStyle=segmentEdgeStyle;endArrow=classic;html=1;curved=0;rounded=0;endSize=8;startSize=8;exitX=0.812;exitY=0;exitDx=0;exitDy=0;exitPerimeter=0;" edge="1" parent="WIyWlLk6GJQsqaUBKTNV-1" source="qYLYCxETFnoU9vuf-ubb-208">
          <mxGeometry width="50" height="50" relative="1" as="geometry">
            <mxPoint x="1100" y="-79.94" as="sourcePoint" />
            <mxPoint x="1180" y="40.06" as="targetPoint" />
          </mxGeometry>
        </mxCell>
        <mxCell id="qYLYCxETFnoU9vuf-ubb-214" value="" style="verticalLabelPosition=bottom;aspect=fixed;html=1;verticalAlign=top;fillColor=strokeColor;align=center;outlineConnect=0;shape=mxgraph.fluid_power.x10670;points=[[0.372,0,0],[0.372,1,0],[0.812,0,0]];direction=west;" vertex="1" parent="WIyWlLk6GJQsqaUBKTNV-1">
          <mxGeometry x="1600" y="-240" width="98.15" height="160" as="geometry" />
        </mxCell>
        <mxCell id="qYLYCxETFnoU9vuf-ubb-216" value="" style="edgeStyle=elbowEdgeStyle;elbow=vertical;endArrow=classic;html=1;curved=0;rounded=0;endSize=8;startSize=8;exitX=0.372;exitY=0;exitDx=0;exitDy=0;exitPerimeter=0;" edge="1" parent="WIyWlLk6GJQsqaUBKTNV-1" source="qYLYCxETFnoU9vuf-ubb-214">
          <mxGeometry width="50" height="50" relative="1" as="geometry">
            <mxPoint x="1604" y="-10" as="sourcePoint" />
            <mxPoint x="1662" y="70" as="targetPoint" />
            <Array as="points">
              <mxPoint x="1614" y="-20" />
            </Array>
          </mxGeometry>
        </mxCell>
        <mxCell id="qYLYCxETFnoU9vuf-ubb-217" value="" style="edgeStyle=elbowEdgeStyle;elbow=vertical;endArrow=classic;html=1;curved=0;rounded=0;endSize=8;startSize=8;" edge="1" parent="WIyWlLk6GJQsqaUBKTNV-1">
          <mxGeometry width="50" height="50" relative="1" as="geometry">
            <mxPoint x="1550" y="-80" as="sourcePoint" />
            <mxPoint x="1550" y="70" as="targetPoint" />
          </mxGeometry>
        </mxCell>
        <mxCell id="qYLYCxETFnoU9vuf-ubb-221" value="" style="endArrow=none;html=1;rounded=0;entryX=0.812;entryY=0;entryDx=0;entryDy=0;entryPerimeter=0;" edge="1" parent="WIyWlLk6GJQsqaUBKTNV-1" target="qYLYCxETFnoU9vuf-ubb-214">
          <mxGeometry width="50" height="50" relative="1" as="geometry">
            <mxPoint x="1550" y="-80" as="sourcePoint" />
            <mxPoint x="1600" y="-130" as="targetPoint" />
          </mxGeometry>
        </mxCell>
        <mxCell id="qYLYCxETFnoU9vuf-ubb-226" value="" style="endArrow=none;html=1;rounded=0;exitX=0.372;exitY=1;exitDx=0;exitDy=0;exitPerimeter=0;" edge="1" parent="WIyWlLk6GJQsqaUBKTNV-1" source="qYLYCxETFnoU9vuf-ubb-214">
          <mxGeometry width="50" height="50" relative="1" as="geometry">
            <mxPoint x="1660" y="-270" as="sourcePoint" />
            <mxPoint x="1660" y="-910" as="targetPoint" />
          </mxGeometry>
        </mxCell>
        <mxCell id="qYLYCxETFnoU9vuf-ubb-227" value="" style="endArrow=none;html=1;rounded=0;exitX=1;exitY=0;exitDx=0;exitDy=0;" edge="1" parent="WIyWlLk6GJQsqaUBKTNV-1" source="qYLYCxETFnoU9vuf-ubb-87">
          <mxGeometry width="50" height="50" relative="1" as="geometry">
            <mxPoint x="1610" y="-860" as="sourcePoint" />
            <mxPoint x="1660" y="-910" as="targetPoint" />
          </mxGeometry>
        </mxCell>
        <mxCell id="qYLYCxETFnoU9vuf-ubb-228" value="" style="endArrow=none;html=1;rounded=0;" edge="1" parent="WIyWlLk6GJQsqaUBKTNV-1">
          <mxGeometry width="50" height="50" relative="1" as="geometry">
            <mxPoint x="1360" y="-240" as="sourcePoint" />
            <mxPoint x="1360" y="-760" as="targetPoint" />
          </mxGeometry>
        </mxCell>
        <mxCell id="qYLYCxETFnoU9vuf-ubb-229" value="" style="endArrow=none;html=1;rounded=0;" edge="1" parent="WIyWlLk6GJQsqaUBKTNV-1">
          <mxGeometry width="50" height="50" relative="1" as="geometry">
            <mxPoint x="1360" y="-760" as="sourcePoint" />
            <mxPoint x="-230" y="-760" as="targetPoint" />
          </mxGeometry>
        </mxCell>
        <mxCell id="qYLYCxETFnoU9vuf-ubb-230" value="CHECK THÔNG TIN TÀI KHOẢN" style="label;whiteSpace=wrap;html=1;image=img/clipart/Gear_128x128.png;fillColor=#f5f5f5;gradientColor=#b3b3b3;strokeColor=#666666;" vertex="1" parent="WIyWlLk6GJQsqaUBKTNV-1">
          <mxGeometry x="780" y="-910" width="250" height="150" as="geometry" />
        </mxCell>
      </root>
    </mxGraphModel>
  </diagram>
</mxfile>
